<?xml version="1.0" encoding="UTF-8" standalone="no"?>
<!-- Created with Inkscape (http://www.inkscape.org/) -->

<svg
   version="1.1"
   id="svg1"
   width="280"
   height="280"
   viewBox="0 0 280 280"
   sodipodi:docname="coreOS.svg"
   inkscape:version="1.3.2 (091e20ef0f, 2023-11-25)"
   xmlns:inkscape="http://www.inkscape.org/namespaces/inkscape"
   xmlns:sodipodi="http://sodipodi.sourceforge.net/DTD/sodipodi-0.dtd"
   xmlns="http://www.w3.org/2000/svg"
   xmlns:svg="http://www.w3.org/2000/svg">
  <defs
     id="defs1" />
  <sodipodi:namedview
     id="namedview1"
     pagecolor="#ffffff"
     bordercolor="#000000"
     borderopacity="0.25"
     inkscape:showpageshadow="2"
     inkscape:pageopacity="0.0"
     inkscape:pagecheckerboard="0"
     inkscape:deskcolor="#d1d1d1"
     inkscape:zoom="1.9857143"
     inkscape:cx="186.83453"
     inkscape:cy="157.1223"
     inkscape:window-width="1536"
     inkscape:window-height="796"
     inkscape:window-x="0"
     inkscape:window-y="0"
     inkscape:window-maximized="1"
     inkscape:current-layer="g1" />
  <g
     inkscape:groupmode="layer"
     inkscape:label="coreOS"
     id="g1"
     style="display:inline">
    <path
       style="fill:#ffffff;stroke:#595959;stroke-width:2.89134"
       id="path3"
       sodipodi:type="arc"
       sodipodi:cx="155.80331"
       sodipodi:cy="127.14548"
       sodipodi:rx="59.102825"
       sodipodi:ry="56.815002"
       sodipodi:start="0"
       sodipodi:end="6.2261002"
       sodipodi:arc-type="arc"
       d="M 214.90614,127.14548 A 59.102825,56.815002 0 0 1 156.64676,183.95469 59.102825,56.815002 0 0 1 96.724562,128.7669 59.102825,56.815002 0 0 1 153.27367,70.382539 59.102825,56.815002 0 0 1 214.80987,123.90395"
       sodipodi:open="true"
       inkscape:label="white" />
    <path
       style="display:inline;fill:#4391d0;fill-opacity:1;stroke:#595959;stroke-width:1.45607"
       d="M 128.40624,268.91661 C 73.002204,263.96569 26.419834,223.21981 14.415987,169.20863 c -2.122489,-9.55011 -2.969458,-17.49126 -2.98099,-27.94964 -0.02336,-21.18775 4.380344,-39.75148 13.82587,-58.282657 14.317387,-28.089283 39.564773,-50.578451 69.43892,-61.852881 14.159303,-5.343689 27.409393,-7.656949 44.041223,-7.688916 21.18253,-0.04071 38.9028,3.843051 55.89928,12.251485 40.00511,19.791182 67.42394,58.20349 71.80192,100.590649 0.89335,8.64928 0.34574,29.51957 -0.97452,37.1406 -9.45883,54.59994 -55.71593,98.57612 -110.14983,104.71838 -8.50195,0.95936 -20.89176,1.3189 -26.91162,0.78096 z m 27.6145,-110.3211 c 13.69308,-1.00188 27.57245,-4.29659 34.30983,-8.14454 1.53941,-0.87921 3.87537,-2.67309 5.19101,-3.98639 l 2.39209,-2.38784 v -4.49039 c 0,-11.6844 -4.21618,-23.78404 -11.80601,-33.88105 -10.49373,-13.960158 -27.63454,-22.971907 -44.14913,-23.211317 -2.99301,-0.04339 -4.68009,0.1744 -5.78665,0.747021 -9.33702,4.831702 -16.05623,33.086926 -15.14998,63.707856 0.1533,5.17992 0.43337,10.04125 0.62237,10.80294 l 0.34365,1.38489 h 13.31815 c 7.32497,0 16.64658,-0.24353 20.71467,-0.54118 z"
       id="path6"
       inkscape:label="blue" />
    <path
       style="fill:#ea465b;fill-opacity:1;stroke:#595959;stroke-width:1.45607"
       d="m 107.76978,174.74963 c -7.12473,-0.5889 -11.54042,-1.49938 -12.069895,-2.48871 -1.627563,-3.04113 -2.614637,-33.58614 -1.571428,-48.62783 2.027736,-29.237244 7.378563,-52.892635 16.223863,-71.723783 5.33104,-11.349496 13.22545,-20.753342 20.37155,-24.266656 l 3.47286,-1.707399 8.3153,0.0624 c 28.65664,0.215044 55.59342,11.440624 76.85838,32.029812 10.29224,9.965171 17.26829,19.468308 23.39116,31.864623 5.4505,11.035053 8.15388,19.386053 10.59653,32.733813 1.3472,7.36168 1.59437,18.3169 0.49845,22.09256 -0.8486,2.9236 -4.86205,7.50645 -9.08176,10.37022 -14.361,9.74632 -46.92057,17.96653 -77.83234,19.65009 -10.13036,0.55174 -52.53475,0.55952 -59.17267,0.0109 z m 55.39569,-16.35024 c 12.24042,-1.7103 23.63996,-5.19242 29.23915,-8.93142 5.46948,-3.65238 6.59481,-6.88555 5.54365,-15.92736 -0.66755,-5.74205 -1.72369,-9.76292 -3.99581,-15.21259 -4.69084,-11.25101 -16.15757,-23.707066 -27.26181,-29.613908 -9.41014,-5.005675 -24.14476,-8.044717 -29.8597,-6.158615 -7.34303,2.423415 -13.96315,20.891193 -15.44713,43.091983 -0.54806,8.19925 -0.60006,28.78128 -0.0789,31.22302 0.56325,2.63879 1.88153,2.80789 19.95404,2.55955 10.93244,-0.15023 17.97763,-0.48169 21.90648,-1.03066 z"
       id="path7"
       inkscape:label="red" />
  </g>
</svg>
